<svg xmlns="http://www.w3.org/2000/svg" xmlns:xlink="http://www.w3.org/1999/xlink" width="500" zoomAndPan="magnify" viewBox="0 0 375 374.999991" height="500" preserveAspectRatio="xMidYMid meet" version="1.0"><path fill="rgb(15.689087%, 53.329468%, 76.078796%)" d="M 321.394531 151.449219 C 333.789062 114.308594 330.355469 83.601562 311.742188 64.945312 L 311.699219 64.902344 C 295.832031 49.035156 270.316406 44.144531 239.949219 51.050781 C 234.976562 52.207031 231.417969 56.667969 231.417969 61.773438 C 231.417969 67.777344 236.347656 72.75 242.394531 72.75 C 243.210938 72.75 244.023438 72.664062 244.839844 72.492188 C 267.570312 67.261719 285.839844 70.09375 296.175781 80.472656 L 296.21875 80.472656 C 308.441406 92.738281 310.070312 116.066406 300.550781 144.5 C 287.125 180.527344 265.726562 212.992188 237.976562 239.625 C 222.667969 254.976562 205.726562 268.617188 187.414062 280.28125 C 169.1875 268.617188 152.289062 254.9375 137.023438 239.582031 C 131.703125 234.265625 126.558594 228.730469 121.753906 223.199219 C 119.652344 220.796875 116.609375 219.425781 113.433594 219.425781 C 107.429688 219.425781 102.453125 224.355469 102.453125 230.402344 C 102.453125 233.019531 103.441406 235.59375 105.15625 237.609375 C 110.304688 243.527344 115.835938 249.445312 121.496094 255.148438 C 139.464844 273.207031 159.496094 289.03125 181.238281 302.28125 C 181.710938 302.582031 182.140625 302.882812 182.652344 303.140625 C 196.078125 311.289062 210.359375 317.9375 225.199219 323.039062 C 238.234375 327.628906 251.960938 330.117188 265.8125 330.375 C 282.796875 331.144531 299.347656 325.011719 311.699219 313.347656 C 336.703125 288.386719 333.703125 241.125 304.324219 189.191406 C 311.1875 177.179688 316.933594 164.574219 321.394531 151.449219 Z M 296.175781 297.824219 C 283.910156 310.132812 260.578125 311.71875 232.144531 302.238281 C 224.210938 299.539062 216.449219 296.320312 208.945312 292.546875 C 224.855469 281.441406 239.78125 268.917969 253.503906 255.148438 C 267.226562 241.382812 279.707031 226.457031 290.816406 210.503906 C 309.769531 248.546875 312.128906 281.867188 296.175781 297.824219 " fill-opacity="1" fill-rule="nonzero"/><path fill="rgb(15.689087%, 53.329468%, 76.078796%)" d="M 130.160156 305.800781 C 107.429688 311.03125 89.160156 308.203125 78.824219 297.824219 C 66.558594 285.558594 64.929688 262.226562 74.449219 233.792969 C 87.875 197.765625 109.273438 165.300781 137.066406 138.667969 C 152.332031 123.316406 169.316406 109.675781 187.585938 98.011719 C 205.8125 109.675781 222.710938 123.359375 237.976562 138.710938 C 243.296875 144.03125 248.441406 149.5625 253.289062 155.09375 C 255.347656 157.496094 258.390625 158.867188 261.566406 158.867188 C 267.570312 158.867188 272.546875 153.9375 272.546875 147.890625 C 272.546875 145.273438 271.601562 142.699219 269.84375 140.726562 C 264.695312 134.765625 259.164062 128.847656 253.503906 123.1875 C 235.664062 105.21875 215.761719 89.476562 194.191406 76.3125 C 193.933594 76.097656 193.675781 76.011719 193.417969 75.839844 C 179.695312 67.390625 165.070312 60.484375 149.800781 55.253906 C 112.660156 42.859375 81.910156 46.289062 63.300781 64.945312 C 38.339844 89.90625 41.296875 137.167969 70.675781 189.105469 C 63.8125 201.113281 58.066406 213.765625 53.605469 226.84375 C 41.210938 263.984375 44.644531 294.691406 63.257812 313.347656 L 63.300781 313.390625 C 75.777344 325.011719 92.417969 331.101562 109.488281 330.289062 C 118.109375 330.246094 126.6875 329.214844 135.050781 327.242188 C 140.023438 326.085938 143.582031 321.625 143.582031 316.519531 C 143.582031 310.515625 138.652344 305.542969 132.605469 305.542969 C 131.789062 305.542969 130.976562 305.628906 130.160156 305.800781 Z M 78.824219 80.472656 C 91.089844 68.207031 114.421875 66.617188 142.855469 76.097656 C 150.789062 78.753906 158.550781 81.972656 166.054688 85.746094 C 134.191406 108.046875 106.445312 135.839844 84.183594 167.789062 C 65.230469 129.75 62.871094 96.425781 78.824219 80.472656 " fill-opacity="1" fill-rule="nonzero"/><path fill="rgb(15.689087%, 53.329468%, 76.078796%)" d="M 160.308594 161.957031 C 145.429688 176.882812 145.429688 201.414062 160.308594 216.335938 C 167.515625 223.5 177.292969 227.574219 187.5 227.574219 C 208.558594 227.574219 225.925781 210.203125 225.925781 189.148438 C 225.925781 168.046875 208.558594 150.71875 187.5 150.71875 C 177.292969 150.71875 167.515625 154.75 160.308594 161.957031 Z M 199.164062 200.769531 C 196.078125 203.898438 191.875 205.617188 187.5 205.617188 C 178.492188 205.617188 171.03125 198.195312 171.03125 189.148438 C 171.03125 180.097656 178.492188 172.679688 187.5 172.679688 C 191.875 172.679688 196.035156 174.394531 199.164062 177.480469 C 205.511719 183.914062 205.511719 194.378906 199.164062 200.8125 " fill-opacity="1" fill-rule="nonzero"/></svg>